<?xml version="1.0" encoding="utf-8"?>
<!-- Generator: Adobe Illustrator 21.0.0, SVG Export Plug-In . SVG Version: 6.00 Build 0)  -->
<svg version="1.1" xmlns="http://www.w3.org/2000/svg" xmlns:xlink="http://www.w3.org/1999/xlink" x="0px" y="0px"
	 viewBox="0 0 176 177.5" enable-background="new 0 0 176 177.5" xml:space="preserve">
<g id="Layer_1">
	<circle stroke="#FFFF00" stroke-width="7" stroke-miterlimit="10" cx="88.5" cy="90.8" r="77.6"/>
</g>
<g id="Layer_5">
	<line fill="#D9E021" stroke="#FCEE21" stroke-width="5" stroke-miterlimit="10" x1="32.4" y1="37.1" x2="146.4" y2="142.5"/>
	<line fill="#D9E021" stroke="#FCEE21" stroke-width="5" stroke-miterlimit="10" x1="155.4" y1="130.2" x2="43.6" y2="26.9"/>
	<line fill="#D9E021" stroke="#FCEE21" stroke-width="5" stroke-miterlimit="10" x1="58.8" y1="19.1" x2="162.3" y2="114.8"/>
	<line fill="#D9E021" stroke="#FCEE21" stroke-width="5" stroke-miterlimit="10" x1="166" y1="95.2" x2="78" y2="13.9"/>
	<line fill="#D9E021" stroke="#FCEE21" stroke-width="5" stroke-miterlimit="10" x1="22.4" y1="49" x2="135.2" y2="153.2"/>
	<line fill="#D9E021" stroke="#FCEE21" stroke-width="5" stroke-miterlimit="10" x1="120.5" y1="161.5" x2="15.2" y2="64.2"/>
	<line fill="#D9E021" stroke="#FCEE21" stroke-width="5" stroke-miterlimit="10" x1="11.4" y1="81.7" x2="103.7" y2="166.9"/>
	<line fill="#D9E021" stroke="#FCEE21" stroke-width="5" stroke-miterlimit="10" x1="142.2" y1="34.8" x2="36.9" y2="148.7"/>
	<line fill="#D9E021" stroke="#FCEE21" stroke-width="5" stroke-miterlimit="10" x1="48.7" y1="158.2" x2="152.1" y2="46.3"/>
	<line fill="#D9E021" stroke="#FCEE21" stroke-width="5" stroke-miterlimit="10" x1="160.2" y1="61.1" x2="64.6" y2="164.7"/>
	<line fill="#D9E021" stroke="#FCEE21" stroke-width="5" stroke-miterlimit="10" x1="84" y1="168.4" x2="165.4" y2="80.3"/>
	<line fill="#D9E021" stroke="#FCEE21" stroke-width="5" stroke-miterlimit="10" x1="130" y1="25.2" x2="26.1" y2="137.5"/>
	<line fill="#D9E021" stroke="#FCEE21" stroke-width="5" stroke-miterlimit="10" x1="17.8" y1="122.9" x2="114.9" y2="17.8"/>
	<line fill="#D9E021" stroke="#FCEE21" stroke-width="5" stroke-miterlimit="10" x1="95.9" y1="13.5" x2="12.1" y2="104.3"/>
	<line fill="#D9E021" stroke="#FCEE21" stroke-width="5" stroke-miterlimit="10" x1="11.9" y1="103.6" x2="81.7" y2="168.1"/>
	<line fill="#D9E021" stroke="#FCEE21" stroke-width="5" stroke-miterlimit="10" x1="163.5" y1="70.7" x2="102.6" y2="14.5"/>
	<line fill="#D9E021" stroke="#FCEE21" stroke-width="5" stroke-miterlimit="10" x1="107.3" y1="166.1" x2="165.1" y2="103.6"/>
	<line fill="#D9E021" stroke="#FCEE21" stroke-width="5" stroke-miterlimit="10" x1="73.7" y1="14.6" x2="11.4" y2="81.7"/>
</g>
<g id="Layer_4">
	<path fill="#000300" stroke="#000000" stroke-miterlimit="10" d="M10.9,127L10.9,127c-3.2,0-5.9-2.7-5.9-5.9V60.5
		c0-3.2,2.6-5.9,5.9-5.9h0c3.2,0,5.9,2.6,5.9,5.9v60.7C16.8,124.4,14.1,127,10.9,127z"/>
	<path fill="#000300" stroke="#000000" stroke-miterlimit="10" d="M166.4,127h-0.7c-3.2,0-5.9-2.7-5.9-5.9V60.5
		c0-3.2,2.6-5.9,5.9-5.9h0.7c3.2,0,5.9,2.6,5.9,5.9v60.7C172.3,124.4,169.7,127,166.4,127z"/>
	<circle fill="none" stroke="#000000" stroke-width="2" stroke-miterlimit="10" cx="88.5" cy="90.8" r="77.6"/>
</g>
<g id="Layer_2">
	<rect x="47.4" y="32.5" stroke="#FFFF00" stroke-width="8" stroke-miterlimit="10" width="85.7" height="115.5"/>
	<rect x="47.4" y="32.5" fill="none" stroke="#000000" stroke-width="3" stroke-miterlimit="10" width="85.7" height="115.5"/>
	<path fill="#CCE9DA" stroke="#009245" stroke-width="10" stroke-miterlimit="10" d="M129.8,47.9"/>
	<path fill="#CCE9DA" stroke="#009245" stroke-width="10" stroke-miterlimit="10" d="M51.8,47.9"/>
	<line fill="#CCE9DA" stroke="#FFFF00" stroke-width="10" stroke-miterlimit="10" x1="51.3" y1="61.5" x2="129.3" y2="61.5"/>
	<line fill="#CCE9DA" stroke="#FFFF00" stroke-width="10" stroke-miterlimit="10" x1="51" y1="90" x2="129" y2="90"/>
	<line fill="#CCE9DA" stroke="#FFFF00" stroke-width="10" stroke-miterlimit="10" x1="51.3" y1="117.5" x2="129.3" y2="117.5"/>
</g>
<g id="Layer_3">
	<linearGradient id="SVGID_1_" gradientUnits="userSpaceOnUse" x1="61.4355" y1="16.5" x2="84.5058" y2="16.5">
		<stop  offset="0" style="stop-color:#666666"/>
		<stop  offset="0.5149" style="stop-color:#4D4D4D"/>
		<stop  offset="1" style="stop-color:#999999"/>
	</linearGradient>
	<rect x="61.4" y="7" fill="url(#SVGID_1_)" width="23.1" height="19"/>
	<linearGradient id="SVGID_2_" gradientUnits="userSpaceOnUse" x1="95.4355" y1="16.5" x2="118.5058" y2="16.5">
		<stop  offset="0" style="stop-color:#666666"/>
		<stop  offset="0.5149" style="stop-color:#4D4D4D"/>
		<stop  offset="1" style="stop-color:#999999"/>
	</linearGradient>
	<rect x="95.4" y="7" fill="url(#SVGID_2_)" width="23.1" height="19"/>
	<g>
		<g>
			<path fill="#006837" d="M58.5,28.8c21.2,0,42.3,0,63.5,0c1.9,0,1.9-3,0-3c-21.2,0-42.3,0-63.5,0C56.6,25.8,56.6,28.8,58.5,28.8
				L58.5,28.8z"/>
		</g>
	</g>
</g>
</svg>
